<?xml version="1.0" encoding="UTF-8" standalone="no"?>
<svg
   viewBox="0 0 20 20"
   version="1.1"
   id="svg1"
   sodipodi:docname="shield-impact.svg"
   inkscape:export-filename="shield-impact.png"
   inkscape:export-xdpi="95.200317"
   inkscape:export-ydpi="95.200317"
   inkscape:version="1.3 (0e150ed, 2023-07-21)"
   width="20"
   height="20"
   xmlns:inkscape="http://www.inkscape.org/namespaces/inkscape"
   xmlns:sodipodi="http://sodipodi.sourceforge.net/DTD/sodipodi-0.dtd"
   xmlns="http://www.w3.org/2000/svg"
   xmlns:svg="http://www.w3.org/2000/svg">
  <defs
     id="defs1" />
  <sodipodi:namedview
     id="namedview1"
     pagecolor="#ffffff"
     bordercolor="#000000"
     borderopacity="0.25"
     inkscape:showpageshadow="2"
     inkscape:pageopacity="0.0"
     inkscape:pagecheckerboard="0"
     inkscape:deskcolor="#d1d1d1"
     inkscape:zoom="25.911853"
     inkscape:cx="8.7604696"
     inkscape:cy="9.3393552"
     inkscape:window-width="1392"
     inkscape:window-height="999"
     inkscape:window-x="0"
     inkscape:window-y="25"
     inkscape:window-maximized="0"
     inkscape:current-layer="svg1" />
  <path
     d="M 7.3945656,0.083355 9.0856902,4.6337914 8.7862654,0.083355 Z m 4.1877534,0 0.09699,4.2341432 0.953104,-4.2341432 z m 6.709688,0 -6.14879,6.3807319 1.526656,0.4807715 L 20,0.37645298 V 0.083355 Z M 20,4.7645232 C 17.537108,6.4345649 14.694665,8.4082459 14.694665,8.4082459 L 20,7.7376985 Z M 4.2780048,4.8910405 C 3.442979,7.0798048 1.8859679,9.0239738 0,10.850055 c 1.8130107,2.884609 3.8857993,5.377023 5.8299583,7.009103 0.9994943,0.83924 1.9652519,1.450744 2.8213606,1.775476 0.8560988,0.328947 1.5856901,0.366898 2.1718961,0.130732 0.425942,-0.172908 0.74645,-0.687416 0.932011,-1.564607 0.189776,-0.877192 0.223523,-2.062247 0.156039,-3.386474 -0.0717,-1.3917 -0.257249,-2.931 -0.480761,-4.46187 l -0.69164,0.716937 0.01686,0.860324 -3.5256347,1.678471 0.2530345,1.024801 2.2393693,0.354245 -0.1180782,0.750674 -1.9273006,-0.30364 0.2319516,0.94889 L 7.1752578,16.560239 6.6185839,14.282909 4.3876438,14.721504 4.2442582,13.979269 5.7456069,13.684059 6.002856,13.097863 4.1472531,11.756768 2.4354621,10.913313 2.7711622,10.230112 4.0586969,10.862698 4.3581218,9.5848723 5.100357,9.7619944 4.7418881,11.250689 6.31072,12.380925 7.7572392,9.0366275 8.621787,9.0197691 10.852727,6.7044776 10.840034,6.6159215 C 8.9043038,6.2827501 6.6438417,5.966457 4.2779552,4.8910504 Z m 7.2747922,2.1845497 -0.548245,0.5693376 1.526656,0.4807616 0.548245,-0.5693276 z m -1.138656,1.180841 -0.7169375,0.7464498 0.6241575,-0.012693 0.379551,-0.00892 0.01686,1.020577 1.223006,-1.2651823 z M 20,9.4203939 C 17.246123,9.8505605 13.695171,10.419888 13.695171,10.419888 L 20,11.301304 Z M 9.958667,9.7577798 8.263328,9.7873316 6.9053649,12.924975 9.988189,11.457373 Z"
     fill="#ffffff"
     fill-opacity="1"
     id="path1"
     style="fill:#000000;stroke-width:0.0421727"
     inkscape:export-filename="../Desktop/shield-impact.png"
     inkscape:export-xdpi="95.200317"
     inkscape:export-ydpi="95.200317" />
</svg>
